<?xml version="1.0" encoding="UTF-8"?>
<svg width="512" height="512" viewBox="0 0 512 512" fill="none" xmlns="http://www.w3.org/2000/svg">
  <rect width="512" height="512" rx="256" fill="#3498db"/>
  <path d="M384 128H128C110.327 128 96 142.327 96 160V352C96 369.673 110.327 384 128 384H384C401.673 384 416 369.673 416 352V160C416 142.327 401.673 128 384 128Z" fill="white"/>
  <path d="M384 128H128C110.327 128 96 142.327 96 160V352C96 369.673 110.327 384 128 384H384C401.673 384 416 369.673 416 352V160C416 142.327 401.673 128 384 128Z" stroke="#3498db" stroke-width="24"/>
  <path d="M160 192H352" stroke="#3498db" stroke-width="24" stroke-linecap="round"/>
  <path d="M160 256H352" stroke="#3498db" stroke-width="24" stroke-linecap="round"/>
  <path d="M160 320H288" stroke="#3498db" stroke-width="24" stroke-linecap="round"/>
</svg> 